# xmcd CD database file
#
# Track frame offsets:
#	150
#	21502
#	33814
#	49795
#	74093
#	89731
#	107373
#	121812
#	136502
#	153545
#	169749
#	196918
#
# Disc length: 4226 seconds
#
# Revision: 0
# Processed by: cddbd v1.4PL0 Copyright (c) Steve Scherf et al.
# Submitted via: CDex 1.40Release
#
DISCID=9d10800c
DTITLE=Anchise Bolchi - The Space Fiddler
DYEAR=2001
DGENRE=Country
TTITLE0=The joker
TTITLE1=It's over my head
TTITLE2=Hurt me all the time
TTITLE3=Mandolin rain
TTITLE4=Honky - tonk attitude
TTITLE5=How long gone
TTITLE6=New country
TTITLE7=Old enough to know better
TTITLE8=Heartland
TTITLE9=Show me a woman
TTITLE10=The joker - 2
TTITLE11=Dati
EXTD=YEAR: 2001 ID3G: 2
EXTT0=
EXTT1=
EXTT2=
EXTT3=
EXTT4=
EXTT5=
EXTT6=
EXTT7=
EXTT8=
EXTT9=
EXTT10=
EXTT11=
PLAYORDER=
